<svg width="22" height="23" viewBox="0 0 22 23" fill="none" xmlns="http://www.w3.org/2000/svg">
<path id="Icon Plus" fill-rule="evenodd" clip-rule="evenodd" d="M11 2.09299C5.77256 2.09299 1.53488 6.33067 1.53488 11.5581C1.53488 16.7855 5.77256 21.0232 11 21.0232C16.2274 21.0232 20.4651 16.7855 20.4651 11.5581C20.4651 6.33067 16.2274 2.09299 11 2.09299ZM0 11.5581C0 5.48297 4.92487 0.558105 11 0.558105C17.0751 0.558105 22 5.48297 22 11.5581C22 17.6332 17.0751 22.5581 11 22.5581C4.92487 22.5581 0 17.6332 0 11.5581ZM11 6.69764C11.4238 6.69764 11.7674 7.04124 11.7674 7.46508V10.7907H15.093C15.5169 10.7907 15.8605 11.1343 15.8605 11.5581C15.8605 11.982 15.5169 12.3255 15.093 12.3255H11.7674V15.6511C11.7674 16.075 11.4238 16.4186 11 16.4186C10.5762 16.4186 10.2326 16.075 10.2326 15.6511V12.3255H6.90698C6.48313 12.3255 6.13953 11.982 6.13953 11.5581C6.13953 11.1343 6.48313 10.7907 6.90698 10.7907H10.2326V7.46508C10.2326 7.04124 10.5762 6.69764 11 6.69764Z" fill="#9A95AE"/>
</svg>
