<svg width="150" height="44" viewBox="0 0 150 44" fill="none" xmlns="http://www.w3.org/2000/svg">
<g id="logo-light">
<g id="iShow">
<path d="M0 39.0001V18.3376H4.97572V39.0001H0ZM0 16.0207V10.7031H4.97572V16.0207H0Z" fill="#DDDBE3"/>
<path d="M20.091 39.4559C18.2932 39.4559 16.6219 39.1267 15.0773 38.4684C13.558 37.81 12.2413 36.8984 11.1271 35.7336C10.0383 34.5435 9.24064 33.1635 8.73421 31.5935L13.0262 29.7324C13.7099 31.353 14.6975 32.6317 15.9889 33.5686C17.2803 34.4802 18.7363 34.936 20.3569 34.936C21.2685 34.936 22.0534 34.7967 22.7118 34.5182C23.3955 34.2143 23.9146 33.8092 24.2691 33.3027C24.6489 32.7963 24.8388 32.1886 24.8388 31.4796C24.8388 30.644 24.5856 29.9603 24.0792 29.4285C23.5981 28.8714 22.8637 28.441 21.8762 28.1371L16.4447 26.3899C14.2417 25.7062 12.5831 24.6807 11.469 23.3133C10.3548 21.9459 9.79772 20.338 9.79772 18.4895C9.79772 16.8689 10.1902 15.4383 10.9752 14.1975C11.7855 12.9567 12.8996 11.9945 14.3176 11.3108C15.761 10.6018 17.4069 10.2473 19.2554 10.2473C20.9519 10.2473 22.5092 10.5512 23.9272 11.1589C25.3452 11.7413 26.5607 12.5642 27.5736 13.6278C28.6117 14.666 29.3841 15.8941 29.8905 17.3121L25.6364 19.2112C25.0794 17.7932 24.2438 16.7043 23.1296 15.9447C22.0154 15.1597 20.724 14.7672 19.2554 14.7672C18.3944 14.7672 17.6348 14.9192 16.9764 15.223C16.3181 15.5016 15.799 15.9067 15.4191 16.4385C15.0646 16.9449 14.8874 17.5526 14.8874 18.2616C14.8874 19.0466 15.1406 19.743 15.647 20.3507C16.1535 20.9331 16.9258 21.3889 17.964 21.718L23.1676 23.3513C25.4212 24.0856 27.1051 25.0985 28.2193 26.3899C29.3587 27.6813 29.9285 29.2766 29.9285 31.1757C29.9285 32.7963 29.5107 34.227 28.6751 35.4677C27.8394 36.7085 26.6873 37.6834 25.2186 38.3924C23.75 39.1014 22.0408 39.4559 20.091 39.4559Z" fill="#DDDBE3"/>
<path d="M34.162 39.0001V10.2473H39.1378V22.4017L38.4541 21.6801C38.9352 20.4393 39.7202 19.5024 40.809 18.8694C41.9232 18.211 43.2146 17.8818 44.6832 17.8818C46.2025 17.8818 47.5446 18.211 48.7094 18.8694C49.8995 19.5277 50.8237 20.452 51.4821 21.6421C52.1405 22.8069 52.4696 24.1616 52.4696 25.7062V39.0001H47.4939V26.8837C47.4939 25.9721 47.3167 25.1871 46.9622 24.5288C46.6077 23.8704 46.1139 23.364 45.4809 23.0095C44.8731 22.6296 44.1515 22.4397 43.3158 22.4397C42.5056 22.4397 41.7839 22.6296 41.1508 23.0095C40.5178 23.364 40.024 23.8704 39.6695 24.5288C39.315 25.1871 39.1378 25.9721 39.1378 26.8837V39.0001H34.162Z" fill="#DDDBE3"/>
<path d="M66.7805 39.4559C64.7547 39.4559 62.9062 38.9875 61.235 38.0505C59.5891 37.1136 58.2724 35.8349 57.2848 34.2143C56.3226 32.5937 55.8415 30.7452 55.8415 28.6689C55.8415 26.5925 56.3226 24.744 57.2848 23.1234C58.2724 21.5028 59.5891 20.2241 61.235 19.2872C62.8809 18.3503 64.7294 17.8818 66.7805 17.8818C68.8062 17.8818 70.642 18.3503 72.2879 19.2872C73.9338 20.2241 75.2379 21.5028 76.2001 23.1234C77.1877 24.7187 77.6815 26.5672 77.6815 28.6689C77.6815 30.7452 77.1877 32.5937 76.2001 34.2143C75.2126 35.8349 73.8959 37.1136 72.25 38.0505C70.604 38.9875 68.7809 39.4559 66.7805 39.4559ZM66.7805 34.898C67.8946 34.898 68.8695 34.6321 69.7051 34.1004C70.5661 33.5686 71.2371 32.8343 71.7182 31.8974C72.2246 30.9351 72.4778 29.859 72.4778 28.6689C72.4778 27.4534 72.2246 26.3899 71.7182 25.4783C71.2371 24.5414 70.5661 23.8071 69.7051 23.2753C68.8695 22.7183 67.8946 22.4397 66.7805 22.4397C65.641 22.4397 64.6408 22.7183 63.7798 23.2753C62.9189 23.8071 62.2352 24.5414 61.7288 25.4783C61.2477 26.3899 61.0071 27.4534 61.0071 28.6689C61.0071 29.859 61.2477 30.9351 61.7288 31.8974C62.2352 32.8343 62.9189 33.5686 63.7798 34.1004C64.6408 34.6321 65.641 34.898 66.7805 34.898Z" fill="#DDDBE3"/>
<path d="M86.2875 39.0001L79.1847 18.3376H84.4263L89.6299 34.0244L87.8068 33.9864L93.3522 18.3376H97.7582L103.266 33.9864L101.443 34.0244L106.646 18.3376H111.888L104.785 39.0001H100.341L94.7196 22.6296H96.3908L90.6935 39.0001H86.2875Z" fill="#DDDBE3"/>
</g>
<g id="Subtract">
<path d="M127.683 44C139.833 44 149.683 34.1503 149.683 22C149.683 15.1683 146.569 9.06382 141.683 5.02865V22.1466C141.683 24.6125 141.082 26.8164 139.88 28.7583C138.677 30.7001 137.016 32.2259 134.897 33.3355C132.809 34.4452 130.404 35 127.683 35C124.962 35 122.542 34.4452 120.422 33.3355C118.334 32.2259 116.689 30.7001 115.486 28.7583C114.284 26.8164 113.683 24.6125 113.683 22.1466V5.02865C108.797 9.06382 105.683 15.1683 105.683 22C105.683 34.1503 115.533 44 127.683 44Z" fill="#714AE1"/>
<path d="M120.137 1.32816V21.823C120.137 23.2409 120.454 24.52 121.086 25.6605C121.751 26.801 122.653 27.6948 123.792 28.3421C124.931 28.9586 126.228 29.2668 127.683 29.2668C129.17 29.2668 130.467 28.9586 131.575 28.3421C132.714 27.6948 133.599 26.801 134.232 25.6605C134.897 24.52 135.229 23.2409 135.229 21.823V1.32816C132.875 0.468854 130.334 0 127.683 0C125.032 0 122.491 0.468854 120.137 1.32816Z" fill="#714AE1"/>
</g>
</g>
</svg>
