<svg width="21" height="20" viewBox="0 0 21 20" fill="none" xmlns="http://www.w3.org/2000/svg">
<g id="icon" clip-path="url(#clip0_1_5330)">
<path id="Vector" d="M4.84977 3.83683V11.491C4.84978 12.0397 4.98525 12.5799 5.24416 13.0637C5.50306 13.5475 5.8774 13.9599 6.33394 14.2643L10.6831 17.1643L15.0323 14.2643C15.4887 13.96 15.863 13.5477 16.1219 13.0641C16.3808 12.5805 16.5163 12.0404 16.5164 11.4918V3.83683L10.6831 2.54183L4.84977 3.83683ZM3.83561 2.35516L10.6831 0.833496L17.5306 2.35516C17.7157 2.3963 17.8812 2.4993 17.9998 2.64717C18.1184 2.79503 18.1831 2.97893 18.1831 3.1685V11.491C18.183 12.3141 17.9798 13.1245 17.5913 13.8502C17.2029 14.5759 16.6413 15.1944 15.9564 15.651L10.6831 19.1668L5.40977 15.651C4.725 15.1945 4.16349 14.5761 3.77506 13.8505C3.38664 13.125 3.1833 12.3148 3.18311 11.4918V3.1685C3.18314 2.97893 3.2478 2.79503 3.36643 2.64717C3.48506 2.4993 3.65055 2.3963 3.83561 2.35516ZM10.6831 11.2502L8.23394 12.5377L8.70144 9.811L6.72061 7.87933L9.45894 7.481L10.6831 5.00016L11.9081 7.481L14.6456 7.87933L12.6648 9.811L13.1314 12.5377L10.6831 11.2502Z" fill="#714AE1"/>
</g>
<defs>
<clipPath id="clip0_1_5330">
<rect width="20" height="20" fill="white" transform="translate(0.683105)"/>
</clipPath>
</defs>
</svg>
