<svg width="121" height="19" viewBox="0 0 121 19" fill="none" xmlns="http://www.w3.org/2000/svg">
<g id="Review">
<g id="star 1">
<g id="Group">
<path id="Vector" d="M9.82368 0.247255L12.5214 5.73141L18.5518 6.61105C18.6283 6.62243 18.7002 6.65495 18.7592 6.70495C18.8183 6.75495 18.8622 6.82044 18.886 6.89406C18.9099 6.96767 18.9127 7.04648 18.8942 7.1216C18.8756 7.19673 18.8365 7.26519 18.7812 7.31928L14.4183 11.5871L15.4484 17.6147C15.4617 17.6909 15.4534 17.7693 15.4243 17.841C15.3953 17.9127 15.3468 17.9748 15.2843 18.0204C15.2218 18.0659 15.1478 18.093 15.0706 18.0986C14.9935 18.1042 14.9163 18.0881 14.8479 18.0521L9.45374 15.2068L4.05961 18.0529C3.99121 18.089 3.91405 18.1053 3.83688 18.0997C3.75972 18.0942 3.68565 18.0672 3.62309 18.0217C3.56054 17.9762 3.51201 17.914 3.48301 17.8423C3.45401 17.7706 3.44572 17.6921 3.45907 17.6159L4.48915 11.5871L0.125087 7.31928C0.0697532 7.26519 0.0306183 7.19673 0.01209 7.1216C-0.00643837 7.04648 -0.00362419 6.96767 0.0202156 6.89406C0.0440554 6.82044 0.0879739 6.75495 0.147025 6.70495C0.206076 6.65495 0.277915 6.62243 0.35445 6.61105L6.38488 5.73141L9.0838 0.247255C9.11746 0.177759 9.17001 0.11915 9.23544 0.0781406C9.30087 0.0371313 9.37652 0.0153809 9.45374 0.0153809C9.53096 0.0153809 9.60662 0.0371313 9.67204 0.0781406C9.73747 0.11915 9.79002 0.177759 9.82368 0.247255Z" fill="#FE8F28"/>
</g>
</g>
<g id="star 2">
<g id="Group_2">
<path id="Vector_2" d="M35.3471 0.247255L38.0448 5.73141L44.0752 6.61105C44.1518 6.62243 44.2236 6.65495 44.2827 6.70495C44.3417 6.75495 44.3856 6.82044 44.4095 6.89406C44.4333 6.96767 44.4361 7.04648 44.4176 7.1216C44.3991 7.19673 44.3599 7.26519 44.3046 7.31928L39.9418 11.5871L40.9719 17.6147C40.9851 17.6909 40.9768 17.7693 40.9478 17.841C40.9188 17.9127 40.8703 17.9748 40.8077 18.0204C40.7452 18.0659 40.6712 18.093 40.5941 18.0986C40.5169 18.1042 40.4398 18.0881 40.3713 18.0521L34.9772 15.2068L29.583 18.0529C29.5146 18.089 29.4375 18.1053 29.3603 18.0997C29.2832 18.0942 29.2091 18.0672 29.1465 18.0217C29.084 17.9762 29.0354 17.914 29.0064 17.8423C28.9775 17.7706 28.9692 17.6921 28.9825 17.6159L30.0126 11.5871L25.6485 7.31928C25.5932 7.26519 25.5541 7.19673 25.5355 7.1216C25.517 7.04648 25.5198 6.96767 25.5437 6.89406C25.5675 6.82044 25.6114 6.75495 25.6705 6.70495C25.7295 6.65495 25.8014 6.62243 25.8779 6.61105L31.9083 5.73141L34.6072 0.247255C34.6409 0.177759 34.6935 0.11915 34.7589 0.0781406C34.8243 0.0371313 34.9 0.0153809 34.9772 0.0153809C35.0544 0.0153809 35.1301 0.0371313 35.1955 0.0781406C35.2609 0.11915 35.3135 0.177759 35.3471 0.247255Z" fill="#FE8F28"/>
</g>
</g>
<g id="star 3">
<g id="Group_3">
<path id="Vector_3" d="M60.8706 0.247255L63.5682 5.73141L69.5987 6.61105C69.6752 6.62243 69.747 6.65495 69.8061 6.70495C69.8652 6.75495 69.9091 6.82044 69.9329 6.89406C69.9568 6.96767 69.9596 7.04648 69.941 7.1216C69.9225 7.19673 69.8834 7.26519 69.828 7.31928L65.4652 11.5871L66.4953 17.6147C66.5086 17.6909 66.5002 17.7693 66.4712 17.841C66.4422 17.9127 66.3937 17.9748 66.3312 18.0204C66.2687 18.0659 66.1946 18.093 66.1175 18.0986C66.0404 18.1042 65.9632 18.0881 65.8948 18.0521L60.5006 15.2068L55.1065 18.0529C55.0381 18.089 54.9609 18.1053 54.8838 18.0997C54.8066 18.0942 54.7325 18.0672 54.67 18.0217C54.6074 17.9762 54.5589 17.914 54.5299 17.8423C54.5009 17.7706 54.4926 17.6921 54.5059 17.6159L55.536 11.5871L51.172 7.31928C51.1166 7.26519 51.0775 7.19673 51.059 7.1216C51.0404 7.04648 51.0433 6.96767 51.0671 6.89406C51.0909 6.82044 51.1348 6.75495 51.1939 6.70495C51.253 6.65495 51.3248 6.62243 51.4013 6.61105L57.4318 5.73141L60.1307 0.247255C60.1643 0.177759 60.2169 0.11915 60.2823 0.0781406C60.3477 0.0371313 60.4234 0.0153809 60.5006 0.0153809C60.5778 0.0153809 60.6535 0.0371313 60.7189 0.0781406C60.7843 0.11915 60.8369 0.177759 60.8706 0.247255Z" fill="#FE8F28"/>
</g>
</g>
<g id="star 4">
<g id="Group_4">
<path id="Vector_4" d="M86.394 0.247255L89.0917 5.73141L95.1221 6.61105C95.1986 6.62243 95.2705 6.65495 95.3295 6.70495C95.3886 6.75495 95.4325 6.82044 95.4563 6.89406C95.4802 6.96767 95.483 7.04648 95.4645 7.1216C95.4459 7.19673 95.4068 7.26519 95.3515 7.31928L90.9886 11.5871L92.0187 17.6147C92.032 17.6909 92.0237 17.7693 91.9947 17.841C91.9657 17.9127 91.9171 17.9748 91.8546 18.0204C91.7921 18.0659 91.7181 18.093 91.6409 18.0986C91.5638 18.1042 91.4866 18.0881 91.4182 18.0521L86.0241 15.2068L80.6299 18.0529C80.5615 18.089 80.4844 18.1053 80.4072 18.0997C80.33 18.0942 80.256 18.0672 80.1934 18.0217C80.1309 17.9762 80.0823 17.914 80.0533 17.8423C80.0243 17.7706 80.016 17.6921 80.0294 17.6159L81.0595 11.5871L76.6954 7.31928C76.6401 7.26519 76.6009 7.19673 76.5824 7.1216C76.5639 7.04648 76.5667 6.96767 76.5905 6.89406C76.6144 6.82044 76.6583 6.75495 76.7173 6.70495C76.7764 6.65495 76.8482 6.62243 76.9248 6.61105L82.9552 5.73141L85.6541 0.247255C85.6878 0.177759 85.7403 0.11915 85.8058 0.0781406C85.8712 0.0371313 85.9468 0.0153809 86.0241 0.0153809C86.1013 0.0153809 86.1769 0.0371313 86.2424 0.0781406C86.3078 0.11915 86.3603 0.177759 86.394 0.247255Z" fill="#FE8F28"/>
</g>
</g>
<g id="star 5">
<g id="Group_5">
<path id="Vector_5" d="M111.917 0.247255L114.615 5.73141L120.646 6.61105C120.722 6.62243 120.794 6.65495 120.853 6.70495C120.912 6.75495 120.956 6.82044 120.98 6.89406C121.004 6.96767 121.006 7.04648 120.988 7.1216C120.969 7.19673 120.93 7.26519 120.875 7.31928L116.512 11.5871L117.542 17.6147C117.555 17.6909 117.547 17.7693 117.518 17.841C117.489 17.9127 117.441 17.9748 117.378 18.0204C117.316 18.0659 117.242 18.093 117.164 18.0986C117.087 18.1042 117.01 18.0881 116.942 18.0521L111.547 15.2068L106.153 18.0529C106.085 18.089 106.008 18.1053 105.931 18.0997C105.853 18.0942 105.779 18.0672 105.717 18.0217C105.654 17.9762 105.606 17.914 105.577 17.8423C105.548 17.7706 105.539 17.6921 105.553 17.6159L106.583 11.5871L102.219 7.31928C102.164 7.26519 102.124 7.19673 102.106 7.1216C102.087 7.04648 102.09 6.96767 102.114 6.89406C102.138 6.82044 102.182 6.75495 102.241 6.70495C102.3 6.65495 102.372 6.62243 102.448 6.61105L108.479 5.73141L111.178 0.247255C111.211 0.177759 111.264 0.11915 111.329 0.0781406C111.395 0.0371313 111.47 0.0153809 111.547 0.0153809C111.625 0.0153809 111.7 0.0371313 111.766 0.0781406C111.831 0.11915 111.884 0.177759 111.917 0.247255Z" fill="#FE8F28"/>
</g>
</g>
</g>
</svg>
